<?xml version="1.0" encoding="UTF-8"?>
<svg xmlns="http://www.w3.org/2000/svg" version="1.1" width="500" height="500" viewBox="0 0 500 500"><rect x="0" y="0" width="500" height="500" fill="#ffffff"/><g transform="scale(15.152)"><g transform="translate(0,0)"><path fill-rule="evenodd" d="M10 0L10 2L11 2L11 0ZM12 0L12 1L13 1L13 0ZM16 0L16 1L14 1L14 3L13 3L13 2L12 2L12 4L14 4L14 5L11 5L11 6L10 6L10 4L11 4L11 3L8 3L8 4L9 4L9 5L8 5L8 7L9 7L9 8L6 8L6 9L8 9L8 10L6 10L6 11L5 11L5 12L3 12L3 13L4 13L4 14L5 14L5 15L1 15L1 14L0 14L0 16L1 16L1 17L0 17L0 20L1 20L1 21L0 21L0 25L1 25L1 22L2 22L2 23L3 23L3 24L2 24L2 25L8 25L8 27L10 27L10 29L11 29L11 30L9 30L9 28L8 28L8 33L12 33L12 32L13 32L13 33L14 33L14 32L17 32L17 33L19 33L19 32L20 32L20 31L19 31L19 30L20 30L20 29L21 29L21 32L22 32L22 33L23 33L23 32L24 32L24 33L25 33L25 32L24 32L24 31L27 31L27 30L29 30L29 32L31 32L31 33L32 33L32 32L31 32L31 31L32 31L32 30L31 30L31 29L32 29L32 26L33 26L33 24L32 24L32 26L31 26L31 27L30 27L30 25L29 25L29 24L31 24L31 23L32 23L32 22L33 22L33 21L32 21L32 20L31 20L31 19L32 19L32 18L33 18L33 17L32 17L32 16L31 16L31 15L32 15L32 14L33 14L33 13L31 13L31 15L30 15L30 13L29 13L29 12L28 12L28 11L29 11L29 10L28 10L28 11L27 11L27 12L28 12L28 13L29 13L29 14L28 14L28 16L27 16L27 13L25 13L25 11L26 11L26 10L27 10L27 9L28 9L28 8L27 8L27 9L26 9L26 8L24 8L24 7L25 7L25 6L24 6L24 7L23 7L23 6L22 6L22 7L21 7L21 5L24 5L24 4L25 4L25 1L24 1L24 0L23 0L23 1L24 1L24 2L22 2L22 0L18 0L18 2L19 2L19 1L21 1L21 2L20 2L20 4L19 4L19 3L17 3L17 2L16 2L16 1L17 1L17 0ZM8 1L8 2L9 2L9 1ZM14 3L14 4L15 4L15 5L14 5L14 6L13 6L13 7L12 7L12 6L11 6L11 7L12 7L12 9L11 9L11 8L10 8L10 9L9 9L9 12L8 12L8 11L6 11L6 12L7 12L7 13L6 13L6 14L7 14L7 15L6 15L6 16L3 16L3 17L4 17L4 18L2 18L2 17L1 17L1 18L2 18L2 19L1 19L1 20L2 20L2 22L3 22L3 23L4 23L4 24L5 24L5 23L6 23L6 24L7 24L7 23L8 23L8 24L9 24L9 26L11 26L11 27L12 27L12 28L11 28L11 29L13 29L13 28L14 28L14 29L15 29L15 30L13 30L13 32L14 32L14 31L15 31L15 30L18 30L18 29L19 29L19 28L21 28L21 29L22 29L22 30L23 30L23 31L24 31L24 27L23 27L23 26L24 26L24 25L23 25L23 24L21 24L21 23L22 23L22 22L23 22L23 23L24 23L24 24L28 24L28 23L30 23L30 22L31 22L31 20L29 20L29 21L27 21L27 19L26 19L26 18L25 18L25 17L27 17L27 18L28 18L28 19L29 19L29 17L30 17L30 19L31 19L31 16L30 16L30 15L29 15L29 17L27 17L27 16L26 16L26 14L25 14L25 13L24 13L24 14L23 14L23 13L22 13L22 12L21 12L21 11L20 11L20 10L21 10L21 9L22 9L22 11L23 11L23 12L24 12L24 11L25 11L25 10L23 10L23 9L22 9L22 8L23 8L23 7L22 7L22 8L20 8L20 5L21 5L21 4L22 4L22 3L21 3L21 4L20 4L20 5L19 5L19 4L15 4L15 3ZM23 3L23 4L24 4L24 3ZM15 5L15 6L14 6L14 8L13 8L13 9L12 9L12 10L15 10L15 12L17 12L17 14L20 14L20 15L21 15L21 16L20 16L20 17L19 17L19 16L17 16L17 17L16 17L16 16L15 16L15 17L14 17L14 16L13 16L13 17L12 17L12 15L14 15L14 14L15 14L15 15L16 15L16 14L15 14L15 13L14 13L14 12L13 12L13 11L12 11L12 13L14 13L14 14L11 14L11 17L10 17L10 16L9 16L9 17L7 17L7 16L8 16L8 15L10 15L10 14L8 14L8 15L7 15L7 16L6 16L6 17L7 17L7 18L5 18L5 19L2 19L2 20L3 20L3 22L6 22L6 23L7 23L7 22L6 22L6 21L7 21L7 20L6 20L6 19L8 19L8 20L9 20L9 21L10 21L10 20L9 20L9 17L10 17L10 19L11 19L11 17L12 17L12 18L13 18L13 19L12 19L12 21L19 21L19 22L8 22L8 23L9 23L9 24L10 24L10 25L12 25L12 26L13 26L13 27L15 27L15 28L16 28L16 29L18 29L18 28L16 28L16 26L13 26L13 25L19 25L19 26L18 26L18 27L19 27L19 26L20 26L20 27L21 27L21 28L22 28L22 29L23 29L23 28L22 28L22 26L23 26L23 25L21 25L21 24L20 24L20 23L21 23L21 22L20 22L20 21L21 21L21 20L23 20L23 18L24 18L24 17L23 17L23 16L22 16L22 15L23 15L23 14L22 14L22 15L21 15L21 13L19 13L19 12L20 12L20 11L19 11L19 10L20 10L20 8L19 8L19 6L18 6L18 5L17 5L17 6L16 6L16 5ZM9 6L9 7L10 7L10 6ZM15 6L15 7L16 7L16 8L14 8L14 9L15 9L15 10L19 10L19 9L16 9L16 8L18 8L18 6L17 6L17 7L16 7L16 6ZM0 8L0 9L2 9L2 10L0 10L0 11L1 11L1 12L2 12L2 10L3 10L3 11L4 11L4 10L3 10L3 9L5 9L5 8ZM29 8L29 9L30 9L30 8ZM31 8L31 10L33 10L33 9L32 9L32 8ZM10 9L10 11L11 11L11 9ZM17 11L17 12L19 12L19 11ZM30 11L30 12L31 12L31 11ZM9 12L9 13L11 13L11 12ZM24 14L24 16L25 16L25 14ZM21 16L21 17L20 17L20 18L19 18L19 17L17 17L17 20L18 20L18 19L19 19L19 20L21 20L21 19L22 19L22 18L23 18L23 17L22 17L22 16ZM13 17L13 18L14 18L14 17ZM15 17L15 18L16 18L16 17ZM21 17L21 18L20 18L20 19L21 19L21 18L22 18L22 17ZM13 19L13 20L14 20L14 19ZM15 19L15 20L16 20L16 19ZM24 19L24 21L23 21L23 22L24 22L24 21L25 21L25 22L27 22L27 23L28 23L28 22L27 22L27 21L25 21L25 19ZM5 20L5 21L6 21L6 20ZM29 21L29 22L30 22L30 21ZM19 22L19 23L20 23L20 22ZM10 23L10 24L11 24L11 23ZM12 23L12 24L15 24L15 23ZM17 23L17 24L18 24L18 23ZM19 24L19 25L20 25L20 26L21 26L21 25L20 25L20 24ZM25 25L25 28L28 28L28 25ZM26 26L26 27L27 27L27 26ZM29 28L29 30L30 30L30 31L31 31L31 30L30 30L30 29L31 29L31 28ZM25 29L25 30L27 30L27 29ZM11 30L11 32L12 32L12 30ZM17 31L17 32L19 32L19 31ZM27 32L27 33L28 33L28 32ZM0 0L0 7L7 7L7 0ZM1 1L1 6L6 6L6 1ZM2 2L2 5L5 5L5 2ZM26 0L26 7L33 7L33 0ZM27 1L27 6L32 6L32 1ZM28 2L28 5L31 5L31 2ZM0 26L0 33L7 33L7 26ZM1 27L1 32L6 32L6 27ZM2 28L2 31L5 31L5 28Z" fill="#000000"/></g></g></svg>
