<?xml version="1.0" encoding="UTF-8"?>
<svg xmlns="http://www.w3.org/2000/svg" version="1.1" width="500" height="500" viewBox="0 0 500 500"><rect x="0" y="0" width="500" height="500" fill="#ffffff"/><g transform="scale(13.514)"><g transform="translate(0,0)"><path fill-rule="evenodd" d="M9 0L9 1L8 1L8 2L9 2L9 3L8 3L8 4L10 4L10 7L11 7L11 4L12 4L12 5L13 5L13 6L12 6L12 9L13 9L13 8L14 8L14 9L15 9L15 10L17 10L17 11L16 11L16 13L12 13L12 11L13 11L13 10L11 10L11 11L10 11L10 13L12 13L12 14L13 14L13 15L12 15L12 17L13 17L13 16L14 16L14 17L15 17L15 18L17 18L17 17L18 17L18 19L19 19L19 18L20 18L20 21L18 21L18 20L17 20L17 19L16 19L16 21L12 21L12 19L13 19L13 18L11 18L11 16L10 16L10 15L11 15L11 14L6 14L6 13L7 13L7 12L6 12L6 11L8 11L8 12L9 12L9 11L8 11L8 10L9 10L9 9L11 9L11 8L6 8L6 9L8 9L8 10L5 10L5 8L0 8L0 9L1 9L1 10L0 10L0 12L1 12L1 10L2 10L2 9L3 9L3 11L2 11L2 12L3 12L3 11L4 11L4 12L5 12L5 15L3 15L3 16L6 16L6 17L7 17L7 18L6 18L6 19L7 19L7 20L6 20L6 21L5 21L5 20L2 20L2 21L0 21L0 22L2 22L2 24L1 24L1 25L0 25L0 29L1 29L1 26L2 26L2 25L3 25L3 26L4 26L4 25L3 25L3 22L2 22L2 21L4 21L4 23L7 23L7 22L6 22L6 21L8 21L8 23L11 23L11 22L9 22L9 21L10 21L10 19L11 19L11 21L12 21L12 22L13 22L13 23L12 23L12 25L13 25L13 24L14 24L14 25L15 25L15 26L17 26L17 27L16 27L16 28L17 28L17 29L19 29L19 30L20 30L20 28L25 28L25 29L21 29L21 32L22 32L22 31L23 31L23 33L19 33L19 32L20 32L20 31L18 31L18 30L17 30L17 31L16 31L16 29L12 29L12 27L13 27L13 26L11 26L11 24L10 24L10 25L9 25L9 24L8 24L8 25L7 25L7 24L6 24L6 25L5 25L5 26L6 26L6 27L5 27L5 28L3 28L3 27L2 27L2 28L3 28L3 29L7 29L7 28L6 28L6 27L8 27L8 28L9 28L9 29L8 29L8 31L9 31L9 32L8 32L8 37L10 37L10 36L11 36L11 37L12 37L12 35L13 35L13 34L11 34L11 33L9 33L9 32L11 32L11 29L12 29L12 30L13 30L13 31L12 31L12 33L13 33L13 32L14 32L14 33L19 33L19 34L25 34L25 35L26 35L26 36L25 36L25 37L28 37L28 36L29 36L29 35L30 35L30 37L32 37L32 36L34 36L34 37L37 37L37 33L36 33L36 31L37 31L37 30L35 30L35 28L34 28L34 27L36 27L36 28L37 28L37 26L36 26L36 25L37 25L37 22L36 22L36 21L37 21L37 18L36 18L36 17L37 17L37 14L36 14L36 13L35 13L35 12L34 12L34 11L35 11L35 9L36 9L36 8L35 8L35 9L34 9L34 8L33 8L33 9L34 9L34 11L33 11L33 10L31 10L31 12L30 12L30 13L28 13L28 14L26 14L26 13L27 13L27 12L28 12L28 11L30 11L30 10L27 10L27 11L26 11L26 12L25 12L25 11L23 11L23 12L24 12L24 13L21 13L21 12L22 12L22 11L21 11L21 12L20 12L20 13L19 13L19 10L20 10L20 8L22 8L22 9L21 9L21 10L22 10L22 9L23 9L23 10L25 10L25 9L27 9L27 8L25 8L25 6L26 6L26 7L27 7L27 6L28 6L28 8L29 8L29 9L30 9L30 8L29 8L29 4L28 4L28 3L27 3L27 2L28 2L28 1L29 1L29 0L28 0L28 1L27 1L27 2L26 2L26 3L25 3L25 4L23 4L23 5L20 5L20 4L21 4L21 3L22 3L22 2L23 2L23 1L24 1L24 0L23 0L23 1L22 1L22 0L18 0L18 1L20 1L20 2L18 2L18 3L17 3L17 2L16 2L16 4L12 4L12 2L13 2L13 1L11 1L11 2L10 2L10 0ZM15 0L15 1L17 1L17 0ZM14 2L14 3L15 3L15 2ZM20 2L20 3L19 3L19 4L16 4L16 5L17 5L17 7L16 7L16 6L15 6L15 7L14 7L14 6L13 6L13 7L14 7L14 8L15 8L15 7L16 7L16 9L17 9L17 10L19 10L19 9L17 9L17 8L18 8L18 6L19 6L19 8L20 8L20 5L19 5L19 4L20 4L20 3L21 3L21 2ZM10 3L10 4L11 4L11 3ZM25 4L25 5L23 5L23 7L24 7L24 6L25 6L25 5L26 5L26 6L27 6L27 5L28 5L28 4L27 4L27 5L26 5L26 4ZM8 5L8 7L9 7L9 5ZM21 6L21 7L22 7L22 6ZM23 8L23 9L25 9L25 8ZM31 8L31 9L32 9L32 8ZM4 10L4 11L5 11L5 10ZM36 10L36 11L37 11L37 10ZM14 11L14 12L15 12L15 11ZM17 11L17 12L18 12L18 11ZM32 11L32 12L33 12L33 11ZM0 13L0 15L2 15L2 14L4 14L4 13L2 13L2 14L1 14L1 13ZM16 13L16 14L19 14L19 16L18 16L18 15L16 15L16 17L17 17L17 16L18 16L18 17L19 17L19 16L21 16L21 17L20 17L20 18L21 18L21 17L22 17L22 18L23 18L23 19L22 19L22 20L21 20L21 21L20 21L20 22L18 22L18 21L16 21L16 22L18 22L18 23L16 23L16 25L17 25L17 26L18 26L18 27L17 27L17 28L18 28L18 27L19 27L19 28L20 28L20 26L19 26L19 25L21 25L21 26L23 26L23 27L24 27L24 26L23 26L23 24L24 24L24 25L25 25L25 26L26 26L26 27L25 27L25 28L26 28L26 27L27 27L27 26L28 26L28 28L30 28L30 27L31 27L31 28L32 28L32 27L33 27L33 25L34 25L34 26L35 26L35 25L34 25L34 24L36 24L36 23L35 23L35 22L33 22L33 21L34 21L34 20L36 20L36 19L35 19L35 17L36 17L36 14L35 14L35 15L34 15L34 13L30 13L30 14L28 14L28 16L29 16L29 17L30 17L30 18L32 18L32 19L31 19L31 20L33 20L33 21L30 21L30 19L28 19L28 21L27 21L27 20L26 20L26 19L25 19L25 18L28 18L28 17L25 17L25 16L27 16L27 15L25 15L25 16L24 16L24 14L25 14L25 13L24 13L24 14L23 14L23 15L22 15L22 16L21 16L21 13L20 13L20 14L19 14L19 13ZM30 14L30 15L29 15L29 16L30 16L30 17L33 17L33 18L34 18L34 17L35 17L35 16L34 16L34 15L32 15L32 14ZM6 15L6 16L8 16L8 18L7 18L7 19L8 19L8 21L9 21L9 19L8 19L8 18L10 18L10 16L8 16L8 15ZM14 15L14 16L15 16L15 15ZM30 15L30 16L32 16L32 15ZM0 16L0 20L1 20L1 19L5 19L5 17L4 17L4 18L3 18L3 17L2 17L2 16ZM22 16L22 17L23 17L23 18L25 18L25 17L24 17L24 16ZM33 16L33 17L34 17L34 16ZM14 19L14 20L15 20L15 19ZM23 19L23 20L22 20L22 21L21 21L21 24L23 24L23 22L25 22L25 23L24 23L24 24L25 24L25 25L26 25L26 26L27 26L27 23L28 23L28 24L29 24L29 22L30 22L30 21L28 21L28 22L26 22L26 20L25 20L25 21L23 21L23 20L24 20L24 19ZM33 19L33 20L34 20L34 19ZM22 21L22 22L23 22L23 21ZM32 22L32 23L31 23L31 24L30 24L30 25L29 25L29 26L30 26L30 25L31 25L31 24L32 24L32 25L33 25L33 24L34 24L34 23L33 23L33 22ZM14 23L14 24L15 24L15 23ZM18 23L18 24L17 24L17 25L19 25L19 24L20 24L20 23ZM25 23L25 24L26 24L26 23ZM6 25L6 26L7 26L7 25ZM9 26L9 27L11 27L11 26ZM14 27L14 28L15 28L15 27ZM10 28L10 29L11 29L11 28ZM26 29L26 30L23 30L23 31L24 31L24 32L27 32L27 31L28 31L28 29ZM29 29L29 32L32 32L32 29ZM33 29L33 30L34 30L34 29ZM9 30L9 31L10 31L10 30ZM30 30L30 31L31 31L31 30ZM14 31L14 32L15 32L15 31ZM17 31L17 32L18 32L18 31ZM34 31L34 32L33 32L33 33L34 33L34 34L30 34L30 33L28 33L28 35L27 35L27 36L28 36L28 35L29 35L29 34L30 34L30 35L31 35L31 36L32 36L32 35L34 35L34 36L36 36L36 35L35 35L35 34L36 34L36 33L34 33L34 32L35 32L35 31ZM26 33L26 34L27 34L27 33ZM9 34L9 36L10 36L10 35L11 35L11 34ZM15 34L15 35L14 35L14 36L15 36L15 37L19 37L19 35L18 35L18 36L17 36L17 35L16 35L16 34ZM21 35L21 36L20 36L20 37L21 37L21 36L22 36L22 35ZM23 35L23 36L24 36L24 35ZM0 0L0 7L7 7L7 0ZM1 1L1 6L6 6L6 1ZM2 2L2 5L5 5L5 2ZM30 0L30 7L37 7L37 0ZM31 1L31 6L36 6L36 1ZM32 2L32 5L35 5L35 2ZM0 30L0 37L7 37L7 30ZM1 31L1 36L6 36L6 31ZM2 32L2 35L5 35L5 32Z" fill="#000000"/></g></g></svg>
