<?xml version="1.0" encoding="UTF-8"?>
<svg xmlns="http://www.w3.org/2000/svg" version="1.1" width="500" height="500" viewBox="0 0 500 500"><rect x="0" y="0" width="500" height="500" fill="#ffffff"/><g transform="scale(13.514)"><g transform="translate(0,0)"><path fill-rule="evenodd" d="M9 0L9 1L8 1L8 2L9 2L9 3L8 3L8 4L10 4L10 7L11 7L11 4L12 4L12 5L13 5L13 6L12 6L12 9L13 9L13 8L14 8L14 9L15 9L15 10L17 10L17 9L19 9L19 10L20 10L20 11L18 11L18 12L17 12L17 11L16 11L16 13L12 13L12 11L13 11L13 10L10 10L10 9L11 9L11 8L6 8L6 9L9 9L9 11L8 11L8 10L5 10L5 11L8 11L8 12L5 12L5 16L6 16L6 17L5 17L5 18L4 18L4 17L3 17L3 16L2 16L2 17L3 17L3 18L2 18L2 22L1 22L1 19L0 19L0 29L1 29L1 26L2 26L2 25L4 25L4 27L8 27L8 24L9 24L9 25L11 25L11 24L9 24L9 23L8 23L8 24L6 24L6 23L7 23L7 22L5 22L5 24L3 24L3 23L4 23L4 22L3 22L3 21L4 21L4 19L5 19L5 21L8 21L8 20L6 20L6 19L8 19L8 18L10 18L10 19L9 19L9 21L12 21L12 22L13 22L13 23L12 23L12 25L13 25L13 24L14 24L14 25L15 25L15 26L17 26L17 25L19 25L19 26L20 26L20 28L17 28L17 27L16 27L16 28L17 28L17 30L18 30L18 32L17 32L17 31L16 31L16 29L12 29L12 27L13 27L13 26L11 26L11 29L10 29L10 28L9 28L9 29L8 29L8 31L9 31L9 32L8 32L8 37L9 37L9 35L10 35L10 37L12 37L12 35L13 35L13 34L10 34L10 33L11 33L11 31L10 31L10 30L11 30L11 29L12 29L12 30L13 30L13 31L12 31L12 33L13 33L13 32L14 32L14 33L19 33L19 34L18 34L18 36L17 36L17 37L18 37L18 36L19 36L19 34L20 34L20 33L21 33L21 34L22 34L22 35L20 35L20 36L22 36L22 37L23 37L23 36L24 36L24 35L23 35L23 34L25 34L25 35L26 35L26 36L25 36L25 37L28 37L28 36L29 36L29 35L30 35L30 37L32 37L32 36L34 36L34 37L37 37L37 33L36 33L36 31L37 31L37 30L35 30L35 28L34 28L34 27L36 27L36 28L37 28L37 26L36 26L36 25L37 25L37 22L36 22L36 21L37 21L37 18L36 18L36 17L37 17L37 14L36 14L36 13L35 13L35 12L34 12L34 11L35 11L35 9L36 9L36 8L35 8L35 9L34 9L34 8L33 8L33 9L34 9L34 11L33 11L33 10L31 10L31 12L30 12L30 13L28 13L28 14L26 14L26 13L27 13L27 12L28 12L28 11L30 11L30 10L27 10L27 11L26 11L26 12L25 12L25 9L27 9L27 8L25 8L25 9L23 9L23 5L24 5L24 7L25 7L25 6L26 6L26 7L27 7L27 6L28 6L28 8L29 8L29 9L30 9L30 8L29 8L29 4L28 4L28 3L27 3L27 2L28 2L28 1L29 1L29 0L28 0L28 1L27 1L27 2L26 2L26 3L25 3L25 4L23 4L23 5L20 5L20 4L21 4L21 3L22 3L22 2L23 2L23 1L24 1L24 0L23 0L23 1L22 1L22 0L21 0L21 1L22 1L22 2L21 2L21 3L20 3L20 4L19 4L19 3L17 3L17 2L18 2L18 1L17 1L17 0L15 0L15 1L17 1L17 2L16 2L16 4L12 4L12 2L13 2L13 1L11 1L11 2L10 2L10 0ZM19 0L19 1L20 1L20 0ZM14 2L14 3L15 3L15 2ZM10 3L10 4L11 4L11 3ZM16 4L16 5L17 5L17 7L16 7L16 6L15 6L15 7L14 7L14 6L13 6L13 7L14 7L14 8L15 8L15 7L16 7L16 9L17 9L17 8L20 8L20 10L21 10L21 9L22 9L22 11L24 11L24 10L23 10L23 9L22 9L22 8L20 8L20 5L19 5L19 4ZM25 4L25 5L26 5L26 6L27 6L27 5L28 5L28 4L27 4L27 5L26 5L26 4ZM8 5L8 7L9 7L9 5ZM18 6L18 7L19 7L19 6ZM21 6L21 7L22 7L22 6ZM0 8L0 9L5 9L5 8ZM31 8L31 9L32 9L32 8ZM0 10L0 11L1 11L1 12L0 12L0 16L1 16L1 13L2 13L2 12L4 12L4 11L3 11L3 10L2 10L2 11L1 11L1 10ZM36 10L36 11L37 11L37 10ZM9 11L9 12L11 12L11 11ZM14 11L14 12L15 12L15 11ZM32 11L32 12L33 12L33 11ZM19 12L19 13L18 13L18 14L17 14L17 13L16 13L16 14L17 14L17 15L16 15L16 17L17 17L17 18L15 18L15 17L14 17L14 16L15 16L15 15L14 15L14 16L13 16L13 17L12 17L12 15L13 15L13 14L12 14L12 13L11 13L11 14L10 14L10 15L9 15L9 13L8 13L8 14L7 14L7 13L6 13L6 14L7 14L7 15L6 15L6 16L8 16L8 17L6 17L6 18L8 18L8 17L10 17L10 18L13 18L13 19L12 19L12 21L16 21L16 22L17 22L17 23L16 23L16 25L17 25L17 24L21 24L21 25L20 25L20 26L23 26L23 27L25 27L25 28L20 28L20 30L19 30L19 29L18 29L18 30L19 30L19 31L20 31L20 30L21 30L21 29L25 29L25 28L26 28L26 27L27 27L27 26L28 26L28 28L30 28L30 27L31 27L31 28L32 28L32 27L33 27L33 25L34 25L34 26L35 26L35 25L34 25L34 24L36 24L36 23L35 23L35 22L33 22L33 21L34 21L34 20L36 20L36 19L35 19L35 17L36 17L36 14L35 14L35 15L34 15L34 13L30 13L30 14L28 14L28 16L29 16L29 17L30 17L30 18L32 18L32 19L31 19L31 20L33 20L33 21L30 21L30 19L28 19L28 21L27 21L27 20L26 20L26 19L24 19L24 18L28 18L28 17L24 17L24 15L25 15L25 16L27 16L27 15L25 15L25 13L24 13L24 12L21 12L21 13L20 13L20 12ZM19 13L19 14L18 14L18 16L17 16L17 17L18 17L18 18L17 18L17 19L16 19L16 21L19 21L19 22L18 22L18 23L19 23L19 22L20 22L20 23L21 23L21 24L22 24L22 23L23 23L23 22L24 22L24 23L26 23L26 24L24 24L24 25L23 25L23 26L24 26L24 25L26 25L26 26L25 26L25 27L26 27L26 26L27 26L27 23L28 23L28 24L29 24L29 22L30 22L30 21L28 21L28 22L26 22L26 20L25 20L25 21L21 21L21 20L23 20L23 18L24 18L24 17L21 17L21 16L23 16L23 15L21 15L21 16L20 16L20 15L19 15L19 14L20 14L20 13ZM21 13L21 14L24 14L24 13ZM30 14L30 15L29 15L29 16L30 16L30 17L33 17L33 18L34 18L34 17L35 17L35 16L34 16L34 15L32 15L32 14ZM8 15L8 16L9 16L9 15ZM10 15L10 17L11 17L11 15ZM30 15L30 16L32 16L32 15ZM18 16L18 17L20 17L20 18L19 18L19 19L20 19L20 20L19 20L19 21L20 21L20 22L21 22L21 21L20 21L20 20L21 20L21 19L22 19L22 18L21 18L21 17L20 17L20 16ZM33 16L33 17L34 17L34 16ZM0 17L0 18L1 18L1 17ZM10 19L10 20L11 20L11 19ZM14 19L14 20L15 20L15 19ZM17 19L17 20L18 20L18 19ZM33 19L33 20L34 20L34 19ZM32 22L32 23L31 23L31 24L30 24L30 25L29 25L29 26L30 26L30 25L31 25L31 24L32 24L32 25L33 25L33 24L34 24L34 23L33 23L33 22ZM1 23L1 25L2 25L2 23ZM14 23L14 24L15 24L15 23ZM5 24L5 26L7 26L7 25L6 25L6 24ZM14 27L14 28L15 28L15 27ZM2 28L2 29L3 29L3 28ZM6 28L6 29L7 29L7 28ZM26 29L26 30L23 30L23 31L22 31L22 32L21 32L21 33L23 33L23 31L24 31L24 32L27 32L27 31L28 31L28 29ZM29 29L29 32L32 32L32 29ZM33 29L33 30L34 30L34 29ZM30 30L30 31L31 31L31 30ZM14 31L14 32L15 32L15 31ZM34 31L34 32L33 32L33 33L34 33L34 34L30 34L30 33L28 33L28 35L27 35L27 36L28 36L28 35L29 35L29 34L30 34L30 35L31 35L31 36L32 36L32 35L34 35L34 36L36 36L36 35L35 35L35 34L36 34L36 33L34 33L34 32L35 32L35 31ZM19 32L19 33L20 33L20 32ZM26 33L26 34L27 34L27 33ZM15 34L15 35L14 35L14 36L15 36L15 37L16 37L16 35L17 35L17 34ZM0 0L0 7L7 7L7 0ZM1 1L1 6L6 6L6 1ZM2 2L2 5L5 5L5 2ZM30 0L30 7L37 7L37 0ZM31 1L31 6L36 6L36 1ZM32 2L32 5L35 5L35 2ZM0 30L0 37L7 37L7 30ZM1 31L1 36L6 36L6 31ZM2 32L2 35L5 35L5 32Z" fill="#000000"/></g></g></svg>
