<?xml version="1.0" encoding="UTF-8"?>
<svg xmlns="http://www.w3.org/2000/svg" version="1.1" width="500" height="500" viewBox="0 0 500 500"><rect x="0" y="0" width="500" height="500" fill="#ffffff"/><g transform="scale(15.152)"><g transform="translate(0,0)"><path fill-rule="evenodd" d="M10 0L10 2L11 2L11 0ZM12 0L12 1L15 1L15 2L14 2L14 3L13 3L13 2L12 2L12 4L14 4L14 5L15 5L15 6L14 6L14 8L13 8L13 9L12 9L12 7L13 7L13 5L11 5L11 6L10 6L10 4L11 4L11 3L8 3L8 4L9 4L9 5L8 5L8 7L9 7L9 8L6 8L6 9L5 9L5 8L0 8L0 12L1 12L1 13L0 13L0 15L1 15L1 16L0 16L0 19L1 19L1 18L2 18L2 20L1 20L1 21L0 21L0 25L1 25L1 22L2 22L2 23L4 23L4 25L7 25L7 24L5 24L5 23L4 23L4 22L6 22L6 23L7 23L7 22L8 22L8 21L11 21L11 20L10 20L10 19L11 19L11 17L12 17L12 18L13 18L13 19L12 19L12 21L14 21L14 22L11 22L11 24L10 24L10 22L9 22L9 24L10 24L10 27L9 27L9 25L8 25L8 27L9 27L9 28L8 28L8 33L10 33L10 31L11 31L11 30L12 30L12 32L13 32L13 33L14 33L14 32L13 32L13 29L16 29L16 30L14 30L14 31L15 31L15 32L17 32L17 33L19 33L19 32L20 32L20 31L18 31L18 32L17 32L17 29L18 29L18 30L23 30L23 29L18 29L18 28L20 28L20 27L19 27L19 26L21 26L21 28L23 28L23 27L24 27L24 31L23 31L23 32L22 32L22 31L21 31L21 32L22 32L22 33L23 33L23 32L24 32L24 33L25 33L25 32L24 32L24 31L27 31L27 30L29 30L29 32L31 32L31 33L32 33L32 32L31 32L31 31L32 31L32 30L31 30L31 29L32 29L32 26L33 26L33 24L32 24L32 26L31 26L31 27L30 27L30 25L29 25L29 24L31 24L31 23L32 23L32 22L33 22L33 21L32 21L32 20L31 20L31 19L32 19L32 18L33 18L33 17L32 17L32 16L31 16L31 15L32 15L32 14L33 14L33 13L31 13L31 15L30 15L30 13L29 13L29 12L28 12L28 11L29 11L29 10L28 10L28 11L27 11L27 12L28 12L28 13L29 13L29 14L28 14L28 16L27 16L27 13L25 13L25 11L26 11L26 10L27 10L27 9L28 9L28 8L27 8L27 9L26 9L26 8L24 8L24 7L25 7L25 6L24 6L24 7L23 7L23 6L22 6L22 7L21 7L21 5L24 5L24 4L25 4L25 1L24 1L24 0L23 0L23 1L24 1L24 2L22 2L22 0L18 0L18 1L17 1L17 2L19 2L19 1L21 1L21 3L20 3L20 4L19 4L19 3L15 3L15 2L16 2L16 1L15 1L15 0ZM8 1L8 2L9 2L9 1ZM14 3L14 4L15 4L15 5L17 5L17 7L16 7L16 6L15 6L15 7L16 7L16 9L15 9L15 8L14 8L14 9L13 9L13 10L12 10L12 9L11 9L11 8L10 8L10 9L8 9L8 10L9 10L9 11L8 11L8 13L6 13L6 12L7 12L7 11L6 11L6 12L5 12L5 11L4 11L4 12L3 12L3 11L2 11L2 10L1 10L1 12L2 12L2 13L1 13L1 15L2 15L2 16L1 16L1 17L2 17L2 18L3 18L3 19L4 19L4 20L3 20L3 21L4 21L4 20L5 20L5 21L6 21L6 22L7 22L7 21L6 21L6 20L8 20L8 19L9 19L9 16L7 16L7 15L6 15L6 14L8 14L8 15L10 15L10 14L14 14L14 15L12 15L12 17L13 17L13 18L14 18L14 17L15 17L15 18L16 18L16 20L18 20L18 21L15 21L15 20L14 20L14 19L13 19L13 20L14 20L14 21L15 21L15 22L14 22L14 23L12 23L12 24L16 24L16 25L13 25L13 26L16 26L16 25L17 25L17 26L19 26L19 25L23 25L23 26L24 26L24 25L23 25L23 24L21 24L21 23L22 23L22 22L23 22L23 23L24 23L24 24L28 24L28 23L30 23L30 22L31 22L31 20L29 20L29 21L27 21L27 19L26 19L26 18L25 18L25 17L27 17L27 18L28 18L28 19L29 19L29 17L30 17L30 19L31 19L31 16L30 16L30 15L29 15L29 17L27 17L27 16L26 16L26 14L25 14L25 13L24 13L24 14L23 14L23 13L22 13L22 12L21 12L21 11L20 11L20 10L21 10L21 9L22 9L22 11L23 11L23 12L24 12L24 11L25 11L25 10L23 10L23 9L22 9L22 8L23 8L23 7L22 7L22 8L20 8L20 5L21 5L21 4L22 4L22 3L21 3L21 4L20 4L20 5L19 5L19 4L18 4L18 5L17 5L17 4L15 4L15 3ZM23 3L23 4L24 4L24 3ZM18 5L18 8L17 8L17 9L16 9L16 10L15 10L15 9L14 9L14 10L13 10L13 11L12 11L12 13L14 13L14 14L15 14L15 15L14 15L14 16L13 16L13 17L14 17L14 16L15 16L15 17L16 17L16 18L17 18L17 17L19 17L19 18L20 18L20 19L21 19L21 20L19 20L19 19L18 19L18 20L19 20L19 21L18 21L18 22L17 22L17 23L16 23L16 22L15 22L15 23L16 23L16 24L17 24L17 25L19 25L19 24L20 24L20 23L21 23L21 22L20 22L20 21L21 21L21 20L23 20L23 18L24 18L24 17L23 17L23 16L22 16L22 15L23 15L23 14L22 14L22 15L21 15L21 13L19 13L19 12L17 12L17 11L18 11L18 10L17 10L17 9L19 9L19 10L20 10L20 8L19 8L19 5ZM9 6L9 7L10 7L10 6ZM11 6L11 7L12 7L12 6ZM29 8L29 9L30 9L30 8ZM31 8L31 10L33 10L33 9L32 9L32 8ZM3 9L3 10L4 10L4 9ZM6 9L6 10L7 10L7 9ZM10 9L10 11L11 11L11 9ZM13 11L13 12L14 12L14 13L15 13L15 14L16 14L16 15L17 15L17 16L16 16L16 17L17 17L17 16L19 16L19 17L20 17L20 18L21 18L21 19L22 19L22 18L23 18L23 17L22 17L22 16L21 16L21 17L20 17L20 16L19 16L19 15L20 15L20 14L17 14L17 12L15 12L15 11ZM30 11L30 12L31 12L31 11ZM4 12L4 13L2 13L2 15L3 15L3 14L6 14L6 13L5 13L5 12ZM9 12L9 13L8 13L8 14L9 14L9 13L11 13L11 12ZM24 14L24 16L25 16L25 14ZM2 16L2 17L3 17L3 18L4 18L4 17L5 17L5 18L6 18L6 19L5 19L5 20L6 20L6 19L7 19L7 18L8 18L8 17L7 17L7 16L6 16L6 17L5 17L5 16ZM10 16L10 17L11 17L11 16ZM6 17L6 18L7 18L7 17ZM21 17L21 18L22 18L22 17ZM24 19L24 21L23 21L23 22L24 22L24 21L25 21L25 22L27 22L27 23L28 23L28 22L27 22L27 21L25 21L25 19ZM29 21L29 22L30 22L30 21ZM19 22L19 23L20 23L20 22ZM17 23L17 24L18 24L18 23ZM11 25L11 27L10 27L10 29L13 29L13 28L15 28L15 27L12 27L12 25ZM25 25L25 28L28 28L28 25ZM26 26L26 27L27 27L27 26ZM11 27L11 28L12 28L12 27ZM16 27L16 29L17 29L17 28L18 28L18 27ZM29 28L29 30L30 30L30 31L31 31L31 30L30 30L30 29L31 29L31 28ZM25 29L25 30L27 30L27 29ZM9 30L9 31L10 31L10 30ZM27 32L27 33L28 33L28 32ZM0 0L0 7L7 7L7 0ZM1 1L1 6L6 6L6 1ZM2 2L2 5L5 5L5 2ZM26 0L26 7L33 7L33 0ZM27 1L27 6L32 6L32 1ZM28 2L28 5L31 5L31 2ZM0 26L0 33L7 33L7 26ZM1 27L1 32L6 32L6 27ZM2 28L2 31L5 31L5 28Z" fill="#000000"/></g></g></svg>
