<?xml version="1.0" encoding="UTF-8"?>
<svg xmlns="http://www.w3.org/2000/svg" version="1.1" width="500" height="500" viewBox="0 0 500 500"><rect x="0" y="0" width="500" height="500" fill="#ffffff"/><g transform="scale(15.152)"><g transform="translate(0,0)"><path fill-rule="evenodd" d="M9 0L9 1L8 1L8 2L9 2L9 3L8 3L8 4L10 4L10 7L11 7L11 8L6 8L6 9L5 9L5 8L0 8L0 9L3 9L3 11L5 11L5 12L6 12L6 13L5 13L5 14L4 14L4 12L3 12L3 13L2 13L2 14L1 14L1 13L0 13L0 16L1 16L1 15L4 15L4 16L6 16L6 17L8 17L8 15L9 15L9 18L10 18L10 17L11 17L11 18L12 18L12 17L14 17L14 18L13 18L13 19L12 19L12 21L11 21L11 19L10 19L10 20L9 20L9 21L10 21L10 23L9 23L9 24L5 24L5 23L8 23L8 21L7 21L7 20L6 20L6 19L8 19L8 18L5 18L5 17L4 17L4 18L3 18L3 17L2 17L2 18L1 18L1 17L0 17L0 18L1 18L1 19L0 19L0 20L2 20L2 21L0 21L0 25L1 25L1 22L2 22L2 23L3 23L3 24L5 24L5 25L8 25L8 27L9 27L9 28L8 28L8 33L9 33L9 31L10 31L10 32L12 32L12 31L10 31L10 30L12 30L12 29L14 29L14 30L13 30L13 31L14 31L14 32L13 32L13 33L14 33L14 32L17 32L17 33L20 33L20 32L22 32L22 33L23 33L23 32L24 32L24 33L27 33L27 32L28 32L28 33L29 33L29 31L28 31L28 30L29 30L29 29L30 29L30 30L31 30L31 31L30 31L30 32L31 32L31 33L32 33L32 32L31 32L31 31L32 31L32 30L31 30L31 29L30 29L30 28L31 28L31 27L32 27L32 29L33 29L33 27L32 27L32 26L33 26L33 24L32 24L32 26L29 26L29 25L30 25L30 24L31 24L31 23L32 23L32 22L33 22L33 21L32 21L32 20L31 20L31 19L32 19L32 18L33 18L33 17L32 17L32 16L31 16L31 15L32 15L32 14L33 14L33 13L31 13L31 15L30 15L30 13L29 13L29 10L28 10L28 8L27 8L27 9L26 9L26 8L25 8L25 3L24 3L24 2L22 2L22 0L18 0L18 1L21 1L21 3L19 3L19 2L18 2L18 3L17 3L17 1L15 1L15 0L14 0L14 1L15 1L15 2L14 2L14 3L12 3L12 2L13 2L13 1L11 1L11 2L10 2L10 0ZM23 0L23 1L24 1L24 0ZM15 2L15 3L14 3L14 4L13 4L13 5L14 5L14 6L13 6L13 8L11 8L11 9L10 9L10 11L11 11L11 12L10 12L10 13L9 13L9 15L10 15L10 16L11 16L11 17L12 17L12 15L13 15L13 16L14 16L14 17L15 17L15 18L14 18L14 19L13 19L13 20L16 20L16 19L15 19L15 18L16 18L16 17L17 17L17 20L18 20L18 21L12 21L12 22L11 22L11 23L10 23L10 24L9 24L9 27L11 27L11 29L12 29L12 27L13 27L13 28L14 28L14 29L15 29L15 30L17 30L17 32L19 32L19 31L21 31L21 30L18 30L18 29L22 29L22 31L23 31L23 30L24 30L24 27L23 27L23 26L21 26L21 25L22 25L22 24L20 24L20 26L19 26L19 25L15 25L15 23L14 23L14 22L16 22L16 24L18 24L18 23L20 23L20 22L21 22L21 21L22 21L22 23L24 23L24 22L23 22L23 21L22 21L22 20L24 20L24 21L25 21L25 22L26 22L26 21L28 21L28 22L27 22L27 23L28 23L28 24L30 24L30 23L29 23L29 22L30 22L30 21L31 21L31 20L30 20L30 19L31 19L31 16L30 16L30 15L29 15L29 13L28 13L28 15L29 15L29 17L28 17L28 16L27 16L27 15L26 15L26 14L25 14L25 15L26 15L26 16L24 16L24 14L23 14L23 13L27 13L27 12L28 12L28 11L27 11L27 10L25 10L25 11L26 11L26 12L24 12L24 10L23 10L23 9L25 9L25 8L24 8L24 5L22 5L22 6L21 6L21 7L22 7L22 8L21 8L21 9L20 9L20 8L19 8L19 9L18 9L18 10L17 10L17 12L15 12L15 13L12 13L12 12L14 12L14 10L16 10L16 9L17 9L17 8L18 8L18 6L19 6L19 7L20 7L20 5L21 5L21 4L22 4L22 3L21 3L21 4L20 4L20 5L19 5L19 4L15 4L15 3L16 3L16 2ZM10 3L10 4L11 4L11 7L12 7L12 4L11 4L11 3ZM14 4L14 5L15 5L15 6L14 6L14 7L15 7L15 6L16 6L16 7L17 7L17 6L18 6L18 5L17 5L17 6L16 6L16 5L15 5L15 4ZM8 5L8 7L9 7L9 5ZM22 6L22 7L23 7L23 6ZM13 8L13 9L11 9L11 10L12 10L12 11L13 11L13 10L14 10L14 8ZM15 8L15 9L16 9L16 8ZM22 8L22 9L23 9L23 8ZM29 8L29 9L30 9L30 8ZM31 8L31 10L33 10L33 9L32 9L32 8ZM4 9L4 10L5 10L5 11L6 11L6 12L7 12L7 11L8 11L8 12L9 12L9 9L6 9L6 10L5 10L5 9ZM19 9L19 10L18 10L18 11L19 11L19 10L20 10L20 9ZM0 10L0 11L1 11L1 12L2 12L2 11L1 11L1 10ZM6 10L6 11L7 11L7 10ZM21 10L21 12L20 12L20 13L19 13L19 12L17 12L17 14L13 14L13 15L15 15L15 17L16 17L16 16L17 16L17 17L18 17L18 18L20 18L20 17L21 17L21 18L22 18L22 17L23 17L23 18L24 18L24 20L27 20L27 19L30 19L30 17L29 17L29 18L28 18L28 17L23 17L23 14L22 14L22 15L20 15L20 17L18 17L18 16L17 16L17 14L20 14L20 13L21 13L21 12L23 12L23 11L22 11L22 10ZM30 11L30 12L31 12L31 11ZM6 13L6 14L7 14L7 15L6 15L6 16L7 16L7 15L8 15L8 13ZM10 13L10 14L12 14L12 13ZM21 16L21 17L22 17L22 16ZM26 18L26 19L27 19L27 18ZM2 19L2 20L3 20L3 21L5 21L5 19ZM18 19L18 20L19 20L19 21L18 21L18 22L17 22L17 23L18 23L18 22L20 22L20 21L21 21L21 20L22 20L22 19L21 19L21 20L19 20L19 19ZM28 20L28 21L30 21L30 20ZM6 21L6 22L7 22L7 21ZM3 22L3 23L4 23L4 22ZM12 23L12 24L13 24L13 25L11 25L11 24L10 24L10 26L13 26L13 27L14 27L14 26L15 26L15 29L18 29L18 28L22 28L22 29L23 29L23 28L22 28L22 27L21 27L21 26L20 26L20 27L18 27L18 26L17 26L17 27L16 27L16 26L15 26L15 25L14 25L14 24L13 24L13 23ZM25 23L25 24L26 24L26 23ZM13 25L13 26L14 26L14 25ZM25 25L25 28L28 28L28 25ZM26 26L26 27L27 27L27 26ZM17 27L17 28L18 28L18 27ZM29 27L29 28L30 28L30 27ZM9 28L9 30L10 30L10 28ZM25 29L25 30L28 30L28 29ZM24 31L24 32L27 32L27 31ZM0 0L0 7L7 7L7 0ZM1 1L1 6L6 6L6 1ZM2 2L2 5L5 5L5 2ZM26 0L26 7L33 7L33 0ZM27 1L27 6L32 6L32 1ZM28 2L28 5L31 5L31 2ZM0 26L0 33L7 33L7 26ZM1 27L1 32L6 32L6 27ZM2 28L2 31L5 31L5 28Z" fill="#000000"/></g></g></svg>
