<?xml version="1.0" encoding="UTF-8"?>
<svg xmlns="http://www.w3.org/2000/svg" version="1.1" width="500" height="500" viewBox="0 0 500 500"><rect x="0" y="0" width="500" height="500" fill="#ffffff"/><g transform="scale(13.514)"><g transform="translate(0,0)"><path fill-rule="evenodd" d="M9 0L9 1L8 1L8 2L9 2L9 3L8 3L8 4L10 4L10 7L11 7L11 4L12 4L12 5L13 5L13 6L12 6L12 9L13 9L13 8L14 8L14 9L15 9L15 10L17 10L17 9L18 9L18 11L19 11L19 10L20 10L20 8L22 8L22 9L21 9L21 10L22 10L22 9L23 9L23 10L24 10L24 11L23 11L23 12L22 12L22 11L20 11L20 13L18 13L18 12L17 12L17 11L16 11L16 13L12 13L12 11L13 11L13 10L9 10L9 9L11 9L11 8L6 8L6 9L5 9L5 8L0 8L0 9L1 9L1 10L0 10L0 11L2 11L2 12L3 12L3 13L4 13L4 12L5 12L5 13L7 13L7 14L4 14L4 15L3 15L3 14L2 14L2 13L1 13L1 14L2 14L2 15L3 15L3 17L4 17L4 19L5 19L5 21L4 21L4 20L2 20L2 18L0 18L0 19L1 19L1 20L0 20L0 24L1 24L1 25L0 25L0 29L1 29L1 25L4 25L4 26L2 26L2 28L5 28L5 29L8 29L8 31L9 31L9 28L10 28L10 29L12 29L12 30L13 30L13 31L12 31L12 33L13 33L13 32L14 32L14 33L16 33L16 34L15 34L15 35L14 35L14 36L15 36L15 37L16 37L16 36L17 36L17 37L18 37L18 36L17 36L17 33L18 33L18 35L19 35L19 34L20 34L20 35L21 35L21 36L19 36L19 37L21 37L21 36L24 36L24 35L21 35L21 34L22 34L22 33L23 33L23 34L25 34L25 35L26 35L26 36L25 36L25 37L28 37L28 36L29 36L29 35L30 35L30 37L32 37L32 36L34 36L34 37L37 37L37 33L36 33L36 31L37 31L37 30L35 30L35 28L34 28L34 27L36 27L36 28L37 28L37 26L36 26L36 25L37 25L37 22L36 22L36 21L37 21L37 18L36 18L36 17L37 17L37 14L36 14L36 13L35 13L35 12L34 12L34 11L35 11L35 9L36 9L36 8L35 8L35 9L34 9L34 8L33 8L33 9L34 9L34 11L33 11L33 10L31 10L31 12L30 12L30 13L28 13L28 14L26 14L26 13L27 13L27 12L28 12L28 11L30 11L30 10L27 10L27 11L26 11L26 12L25 12L25 9L27 9L27 8L25 8L25 6L26 6L26 7L27 7L27 6L28 6L28 8L29 8L29 9L30 9L30 8L29 8L29 4L28 4L28 3L27 3L27 2L28 2L28 1L29 1L29 0L28 0L28 1L27 1L27 2L26 2L26 3L24 3L24 4L23 4L23 5L20 5L20 4L21 4L21 3L23 3L23 1L25 1L25 0L21 0L21 1L20 1L20 0L19 0L19 1L17 1L17 0L15 0L15 1L17 1L17 2L16 2L16 4L12 4L12 2L13 2L13 1L11 1L11 2L10 2L10 0ZM19 1L19 2L20 2L20 1ZM14 2L14 3L15 3L15 2ZM17 2L17 3L18 3L18 2ZM10 3L10 4L11 4L11 3ZM19 3L19 4L16 4L16 5L17 5L17 7L16 7L16 6L15 6L15 7L14 7L14 6L13 6L13 7L14 7L14 8L15 8L15 7L16 7L16 9L17 9L17 8L18 8L18 9L19 9L19 8L20 8L20 5L19 5L19 4L20 4L20 3ZM24 4L24 5L23 5L23 7L24 7L24 6L25 6L25 5L26 5L26 6L27 6L27 5L28 5L28 4L27 4L27 5L26 5L26 4ZM8 5L8 7L9 7L9 5ZM18 6L18 8L19 8L19 6ZM21 6L21 7L22 7L22 6ZM23 8L23 9L25 9L25 8ZM31 8L31 9L32 9L32 8ZM3 9L3 10L2 10L2 11L6 11L6 12L7 12L7 11L8 11L8 14L7 14L7 15L5 15L5 16L4 16L4 17L6 17L6 18L5 18L5 19L6 19L6 20L7 20L7 21L6 21L6 22L8 22L8 23L5 23L5 24L4 24L4 23L3 23L3 22L4 22L4 21L3 21L3 22L1 22L1 24L4 24L4 25L5 25L5 24L7 24L7 25L6 25L6 26L5 26L5 27L6 27L6 28L8 28L8 26L9 26L9 27L10 27L10 26L13 26L13 27L12 27L12 29L16 29L16 30L17 30L17 32L16 32L16 33L17 33L17 32L18 32L18 33L19 33L19 32L21 32L21 33L20 33L20 34L21 34L21 33L22 33L22 32L23 32L23 31L24 31L24 32L27 32L27 31L28 31L28 29L26 29L26 30L25 30L25 29L24 29L24 28L26 28L26 27L27 27L27 26L28 26L28 28L30 28L30 27L31 27L31 28L32 28L32 27L33 27L33 25L34 25L34 26L35 26L35 25L34 25L34 24L36 24L36 23L35 23L35 22L33 22L33 21L34 21L34 20L36 20L36 19L35 19L35 17L36 17L36 14L35 14L35 15L34 15L34 13L30 13L30 14L28 14L28 16L29 16L29 17L30 17L30 18L32 18L32 19L31 19L31 20L33 20L33 21L30 21L30 19L28 19L28 21L27 21L27 20L26 20L26 19L25 19L25 18L28 18L28 17L25 17L25 16L27 16L27 15L25 15L25 13L24 13L24 12L23 12L23 13L22 13L22 12L21 12L21 13L20 13L20 14L19 14L19 15L18 15L18 13L16 13L16 14L17 14L17 15L16 15L16 17L17 17L17 18L15 18L15 17L14 17L14 16L15 16L15 15L14 15L14 16L13 16L13 17L12 17L12 15L13 15L13 14L12 14L12 13L10 13L10 11L8 11L8 9L6 9L6 10L4 10L4 9ZM6 10L6 11L7 11L7 10ZM36 10L36 11L37 11L37 10ZM14 11L14 12L15 12L15 11ZM32 11L32 12L33 12L33 11ZM21 13L21 14L20 14L20 15L21 15L21 16L20 16L20 17L19 17L19 16L17 16L17 17L19 17L19 18L18 18L18 20L17 20L17 19L16 19L16 21L12 21L12 19L13 19L13 18L11 18L11 19L10 19L10 18L9 18L9 17L7 17L7 16L8 16L8 15L9 15L9 16L10 16L10 15L9 15L9 14L8 14L8 15L7 15L7 16L6 16L6 17L7 17L7 18L6 18L6 19L7 19L7 20L8 20L8 22L10 22L10 23L11 23L11 22L10 22L10 20L11 20L11 21L12 21L12 22L13 22L13 23L12 23L12 25L13 25L13 24L14 24L14 25L15 25L15 26L17 26L17 27L16 27L16 28L17 28L17 29L18 29L18 30L20 30L20 31L21 31L21 32L22 32L22 31L23 31L23 30L24 30L24 29L21 29L21 30L20 30L20 28L23 28L23 26L24 26L24 27L26 27L26 26L27 26L27 23L28 23L28 24L29 24L29 22L30 22L30 21L28 21L28 22L26 22L26 20L25 20L25 21L23 21L23 20L24 20L24 19L22 19L22 18L25 18L25 17L21 17L21 16L22 16L22 15L21 15L21 14L22 14L22 13ZM23 13L23 14L24 14L24 13ZM30 14L30 15L29 15L29 16L30 16L30 17L33 17L33 18L34 18L34 17L35 17L35 16L34 16L34 15L32 15L32 14ZM0 15L0 17L1 17L1 15ZM24 15L24 16L25 16L25 15ZM30 15L30 16L32 16L32 15ZM33 16L33 17L34 17L34 16ZM20 17L20 18L19 18L19 19L20 19L20 20L18 20L18 21L16 21L16 22L17 22L17 23L16 23L16 25L17 25L17 26L18 26L18 27L17 27L17 28L18 28L18 29L19 29L19 28L20 28L20 26L19 26L19 25L21 25L21 26L23 26L23 25L25 25L25 26L26 26L26 25L25 25L25 24L26 24L26 23L25 23L25 22L23 22L23 21L22 21L22 20L21 20L21 17ZM7 18L7 19L8 19L8 18ZM9 19L9 20L10 20L10 19ZM14 19L14 20L15 20L15 19ZM33 19L33 20L34 20L34 19ZM18 21L18 22L20 22L20 23L21 23L21 24L22 24L22 23L23 23L23 24L24 24L24 23L23 23L23 22L22 22L22 21ZM21 22L21 23L22 23L22 22ZM32 22L32 23L31 23L31 24L30 24L30 25L29 25L29 26L30 26L30 25L31 25L31 24L32 24L32 25L33 25L33 24L34 24L34 23L33 23L33 22ZM14 23L14 24L15 24L15 23ZM17 24L17 25L19 25L19 24ZM9 25L9 26L10 26L10 25ZM6 26L6 27L7 27L7 26ZM14 27L14 28L15 28L15 27ZM18 27L18 28L19 28L19 27ZM29 29L29 32L32 32L32 29ZM33 29L33 30L34 30L34 29ZM10 30L10 33L9 33L9 32L8 32L8 37L12 37L12 35L13 35L13 34L11 34L11 30ZM30 30L30 31L31 31L31 30ZM14 31L14 32L15 32L15 31ZM18 31L18 32L19 32L19 31ZM34 31L34 32L33 32L33 33L34 33L34 34L30 34L30 33L28 33L28 35L27 35L27 36L28 36L28 35L29 35L29 34L30 34L30 35L31 35L31 36L32 36L32 35L34 35L34 36L36 36L36 35L35 35L35 34L36 34L36 33L34 33L34 32L35 32L35 31ZM26 33L26 34L27 34L27 33ZM9 34L9 36L10 36L10 34ZM0 0L0 7L7 7L7 0ZM1 1L1 6L6 6L6 1ZM2 2L2 5L5 5L5 2ZM30 0L30 7L37 7L37 0ZM31 1L31 6L36 6L36 1ZM32 2L32 5L35 5L35 2ZM0 30L0 37L7 37L7 30ZM1 31L1 36L6 36L6 31ZM2 32L2 35L5 35L5 32Z" fill="#000000"/></g></g></svg>
